# xmcd
#
# Track frame offsets:
#	150
#	20855
#	40360
#	58285
#	74470
#	92543
#	98160
#	119673
#	156663
#	183010
#	204600
#
# Disc length: 2767 seconds
#
# Revision: 0
# Processed by: cddbd v1.5.1PL2 Copyright (c) Steve Scherf et al.
# Submitted via: EasyCDDAExtractor 9.0.2.1
#
DISCID=a40acd0b
DTITLE=Soul for Real - Candy Rain
DYEAR=1900
DGENRE=R&B
TTITLE0=Candy Rain
TTITLE1=Every Little Thing I Do
TTITLE2=All In My Mind
TTITLE3=If You Want It
TTITLE4=I Wanna Be Your Friend
TTITLE5=Ain't No Sunshine
TTITLE6=Spend The Night
TTITLE7=I Don't Know
TTITLE8=If Only You Knew
TTITLE9=Thinking Of You
TTITLE10=Piano Interlude
EXTD=
EXTT0=
EXTT1=
EXTT2=
EXTT3=
EXTT4=
EXTT5=
EXTT6=
EXTT7=
EXTT8=
EXTT9=
EXTT10=
PLAYORDER=
